<svg width="24" height="24" viewBox="0 0 24 24" fill="none" xmlns="http://www.w3.org/2000/svg">
<g clip-path="url(#clip0_9621_170601)">
<path fill-rule="evenodd" clip-rule="evenodd" d="M0 0H15.1894C19.8573 0 24 3.45552 24 8.15438C24 11.1564 22.6404 13.7776 20.4243 15.4868L23.9329 24H0V0ZM19.1934 12.5843C17.2138 8.75085 14.991 6.45953 12.7284 5.44858C10.3315 4.37759 8.03456 4.82018 6.41988 6.14992C4.66768 7.5929 4.27505 9.97136 4.92173 12.033C5.58438 14.1456 7.34246 16.0672 10.0961 16.9407L10.097 16.941C12.8638 17.8169 15.5238 17.7503 17.7761 16.9344L19.4517 21H3V3H15.1894C18.5015 3 21 5.39823 21 8.15438C21 9.91238 20.3297 11.453 19.1934 12.5843ZM16.6283 14.1574C14.783 10.5125 12.9341 8.82634 11.5046 8.18759C10.1379 7.57694 9.05513 7.86607 8.327 8.46571C7.73638 8.9521 7.41042 9.94349 7.78421 11.1352C8.14198 12.2758 9.14319 13.4909 11.0024 14.0809M16.6283 14.1574C15.0586 14.6934 13.1314 14.7547 11.0032 14.0812L16.6283 14.1574Z" fill="#00A398"/>
</g>
<defs>
<clipPath id="clip0_9621_170601">
<rect width="24" height="24" fill="white"/>
</clipPath>
</defs>
</svg>
