<?xml version="1.0" encoding="UTF-8" standalone="no"?>
<svg
   width="32"
   height="32"
   viewBox="0 0 32 32"
   fill="none"
   version="1.1"
   id="svg11"
   xmlns="http://www.w3.org/2000/svg"
   xmlns:svg="http://www.w3.org/2000/svg">
  <g
     clip-path="url(#clip0_2995_16980)"
     id="g1"
     transform="translate(4,4)">
    <path
       fill-rule="evenodd"
       clip-rule="evenodd"
       d="M 0,0 H 15.1894 C 19.8573,0 24,3.45552 24,8.15438 24,11.1564 22.6404,13.7776 20.4243,15.4868 L 23.9329,24 H 0 Z M 19.1934,12.5843 C 17.2138,8.75085 14.991,6.45953 12.7284,5.44858 10.3315,4.37759 8.03456,4.82018 6.41988,6.14992 4.66768,7.5929 4.27505,9.97136 4.92173,12.033 c 0.66265,2.1126 2.42073,4.0342 5.17437,4.9077 l 9e-4,3e-4 c 2.7668,0.8759 5.4268,0.8093 7.6791,-0.0066 L 19.4517,21 H 3 V 3 H 15.1894 C 18.5015,3 21,5.39823 21,8.15438 c 0,1.758 -0.6703,3.29862 -1.8066,4.42992 z m -2.5651,1.5731 C 14.783,10.5125 12.9341,8.82634 11.5046,8.18759 10.1379,7.57694 9.05513,7.86607 8.327,8.46571 7.73638,8.9521 7.41042,9.94349 7.78421,11.1352 c 0.35777,1.1406 1.35898,2.3557 3.21819,2.9457 m 5.6259,0.0765 c -1.5697,0.536 -3.4969,0.5973 -5.6251,-0.0762 z"
       fill="#00a398"
       id="path1" />
  </g>
  <defs
     id="defs11">
    <clipPath
       id="clip0_2995_16980">
      <rect
         width="24"
         height="24"
         fill="#ffffff"
         id="rect11"
         x="0"
         y="0" />
    </clipPath>
  </defs>
</svg>
